ExternalForces									
version=1									
nRows=246									
nColumns=10									
inDegrees=yes									
endheader									
time	chair_force_vx	chair_force_vy	chair_force_vz	chair_force_px	chair_force_py	chair_force_pz	chair_torque_x	chair_torque_y	chair_torque_z
0	-16.18394126	264.7660241	0	0	0	0	0	0	0
0.00650244	-12.47354202	259.6426794	0	0	0	0	0	0	0
0.00749052	-15.4412296	265.2363324	0	0	0	0	0	0	0
0.00903957	-14.79928812	264.8007116	0	0	0	0	0	0	0
0.01550947	-9.59050851	259.7218249	0	0	0	0	0	0	0
0.01643241	-11.03345655	262.9681013	0	0	0	0	0	0	0
0.01796742	-10.69439755	263.6265854	0	0	0	0	0	0	0
0.02482612	-7.23915312	263.7059906	0	0	0	0	0	0	0
0.03667037	1.67054397	259.479176	0	0	0	0	0	0	0
0.04834202	7.67737178	260.3655978	0	0	0	0	0	0	0
0.06076842	18.33723309	257.9984237	0	0	0	0	0	0	0
0.06243478	18.05629789	257.6355367	0	0	0	0	0	0	0
0.0680459	20.81481164	256.6747093	0	0	0	0	0	0	0
0.07684039	29.94161226	255.5126345	0	0	0	0	0	0	0
0.07823391	28.94504564	255.1405091	0	0	0	0	0	0	0
0.08240391	30.72229502	254.3919207	0	0	0	0	0	0	0
0.09059231	35.86521267	253.0502149	0	0	0	0	0	0	0
0.0979508	41.53517438	251.9275862	0	0	0	0	0	0	0
0.1042536	44.65749668	250.7675152	0	0	0	0	0	0	0
0.1105564	48.79651321	249.561097	0	0	0	0	0	0	0
0.12116435	44.95152943	246.8361445	0	0	0	0	0	0	0
0.12225805	54.75934245	247.3872232	0	0	0	0	0	0	0
0.12335174	54.95345322	247.1669429	0	0	0	0	0	0	0
0.1288202	56.82484453	246.156913	0	0	0	0	0	0	0
0.13977432	62.79749938	244.3583535	0	0	0	0	0	0	0
0.14140892	62.44627267	243.989261	0	0	0	0	0	0	0
0.14935878	61.04604214	242.2102944	0	0	0	0	0	0	0
0.15024287	64.29654238	242.2905515	0	0	0	0	0	0	0
0.15179354	65.34056594	242.0491421	0	0	0	0	0	0	0
0.15816837	68.17472799	240.9288705	0	0	0	0	0	0	0
0.16911092	61.42057192	238.0159518	0	0	0	0	0	0	0
0.17022512	73.41800872	238.763125	0	0	0	0	0	0	0
0.17133933	73.20677897	238.5031017	0	0	0	0	0	0	0
0.17691035	74.26402387	237.3718666	0	0	0	0	0	0	0
0.18613049	79.59173485	235.774329	0	0	0	0	0	0	0
0.18770409	78.8085876	235.3591822	0	0	0	0	0	0	0
0.19370185	79.56508594	234.0794564	0	0	0	0	0	0	0
0.20232256	88.28420254	232.8158211	0	0	0	0	0	0	0
0.20344335	85.62025269	232.3197811	0	0	0	0	0	0	0
0.20522544	84.38382345	231.765865	0	0	0	0	0	0	0
0.2101645	84.7578842	230.5011468	0	0	0	0	0	0	0
0.21913919	86.699461	228.2968859	0	0	0	0	0	0	0
0.2316055	84.81452571	225.0491039	0	0	0	0	0	0	0
0.23285213	89.01598313	225.0841502	0	0	0	0	0	0	0
0.23454189	89.20502411	224.6924076	0	0	0	0	0	0	0
0.24299069	90.18528544	222.7516379	0	0	0	0	0	0	0
0.25045207	91.74223115	221.0976232	0	0	0	0	0	0	0
0.25687218	91.73057996	219.5631095	0	0	0	0	0	0	0
0.26454374	96.4924366	218.0816723	0	0	0	0	0	0	0
0.26598609	94.33297078	217.5686695	0	0	0	0	0	0	0
0.26982568	93.62443508	216.5845661	0	0	0	0	0	0	0
0.27826283	93.53615044	214.5209112	0	0	0	0	0	0	0
0.28039987	94.36870723	214.0580684	0	0	0	0	0	0	0
0.28771124	96.70661078	212.4235343	0	0	0	0	0	0	0
0.28962481	96.00617502	211.8984575	0	0	0	0	0	0	0
0.29719804	93.96230354	209.8698041	0	0	0	0	0	0	0
0.29804793	95.73828563	209.7808724	0	0	0	0	0	0	0
0.29995597	96.36262042	209.3465	0	0	0	0	0	0	0
0.30784175	99.83913208	207.5621963	0	0	0	0	0	0	0
0.30932413	98.43741166	207.0763256	0	0	0	0	0	0	0
0.31468903	97.74628581	205.5822559	0	0	0	0	0	0	0
0.32295732	103.4167463	203.6181397	0	0	0	0	0	0	0
0.32416998	100.5468796	203.0865374	0	0	0	0	0	0	0
0.32739155	99.37287895	202.0748272	0	0	0	0	0	0	0
0.33531285	96.89951633	199.5734547	0	0	0	0	0	0	0
0.33618979	99.23801176	199.4480336	0	0	0	0	0	0	0
0.33785618	99.74905921	198.9739717	0	0	0	0	0	0	0
0.34530527	103.1697359	196.8850878	0	0	0	0	0	0	0
0.34673421	101.6577855	196.3561802	0	0	0	0	0	0	0
0.3518589	100.8234683	194.711592	0	0	0	0	0	0	0
0.35996084	106.1702293	192.4335655	0	0	0	0	0	0	0
0.36116226	103.3481303	191.9059761	0	0	0	0	0	0	0
0.36446914	102.1281144	190.7893762	0	0	0	0	0	0	0
0.3724799	96.93117194	187.9791362	0	0	0	0	0	0	0
0.37336223	101.9480739	187.929249	0	0	0	0	0	0	0
0.37465092	102.3399451	187.5322812	0	0	0	0	0	0	0
0.38109435	104.8444319	185.5583847	0	0	0	0	0	0	0
0.38265952	103.7811096	185.003091	0	0	0	0	0	0	0
0.38916609	100.5196524	182.7521921	0	0	0	0	0	0	0
0.38992065	102.8168479	182.5981798	0	0	0	0	0	0	0
0.39154497	103.4108669	182.0915867	0	0	0	0	0	0	0
0.39706983	104.5994273	180.3279916	0	0	0	0	0	0	0
0.4021295	104.054911	178.6370068	0	0	0	0	0	0	0
0.4095487	110.1614315	176.2784568	0	0	0	0	0	0	0
0.41059884	106.6422784	175.8035081	0	0	0	0	0	0	0
0.41332881	104.9899082	174.7821732	0	0	0	0	0	0	0
0.41952301	103.2533814	172.474711	0	0	0	0	0	0	0
0.42041131	104.0965387	172.1719549	0	0	0	0	0	0	0
0.42308781	104.3406583	171.2003011	0	0	0	0	0	0	0
0.43037123	104.1906572	168.5626211	0	0	0	0	0	0	0
0.43486288	103.8444021	166.9534337	0	0	0	0	0	0	0
0.44319345	108.3567887	164.0892043	0	0	0	0	0	0	0
0.44424551	105.3287482	163.676739	0	0	0	0	0	0	0
0.44745834	103.5834083	162.5348846	0	0	0	0	0	0	0
0.45356251	101.6803727	160.4095896	0	0	0	0	0	0	0
0.45444562	102.6071031	160.1149238	0	0	0	0	0	0	0
0.45685648	102.781972	159.2902129	0	0	0	0	0	0	0
0.46377625	102.6763522	156.9291158	0	0	0	0	0	0	0
0.46688428	102.2744708	155.8720386	0	0	0	0	0	0	0
0.47730808	99.53419042	152.359224	0	0	0	0	0	0	0
0.4786344	101.92876	151.9019226	0	0	0	0	0	0	0
0.48064111	101.6055176	151.228677	0	0	0	0	0	0	0
0.48781927	99.59621444	148.8412343	0	0	0	0	0	0	0
0.48880217	100.9018708	148.4986359	0	0	0	0	0	0	0
0.4908408	100.9965805	147.816413	0	0	0	0	0	0	0
0.49843751	103.4843422	145.2412732	0	0	0	0	0	0	0
0.49960269	101.7900941	144.881328	0	0	0	0	0	0	0
0.50431787	99.9816331	143.303581	0	0	0	0	0	0	0
0.50890513	103.4474487	141.6209617	0	0	0	0	0	0	0
0.51040955	100.9197862	141.1593753	0	0	0	0	0	0	0
0.51421942	99.4727919	139.9028102	0	0	0	0	0	0	0
0.52214569	97.13292262	137.4199732	0	0	0	0	0	0	0
0.52322684	98.35440692	137.0465442	0	0	0	0	0	0	0
0.5253313	98.20789253	136.4120216	0	0	0	0	0	0	0
0.53444641	101.7731992	133.6327985	0	0	0	0	0	0	0
0.53535792	98.84422862	133.4987985	0	0	0	0	0	0	0
0.53858987	96.77367027	132.7054026	0	0	0	0	0	0	0
0.5438634	94.81909787	131.406251	0	0	0	0	0	0	0
0.54502987	95.53592202	131.0718323	0	0	0	0	0	0	0
0.54771749	95.30082708	130.3992014	0	0	0	0	0	0	0
0.55582992	92.02484932	128.5750803	0	0	0	0	0	0	0
0.55686911	94.02840958	128.2119373	0	0	0	0	0	0	0
0.55853706	93.75403947	127.8273746	0	0	0	0	0	0	0
0.5668768	91.87715897	125.9828092	0	0	0	0	0	0	0
0.56819551	92.26733689	125.653713	0	0	0	0	0	0	0
0.5717511	92.01547279	124.8580419	0	0	0	0	0	0	0
0.57705261	89.87521029	123.8116114	0	0	0	0	0	0	0
0.57785513	90.69426144	123.5737129	0	0	0	0	0	0	0
0.58005489	90.67558814	123.0854067	0	0	0	0	0	0	0
0.58582861	89.5647702	121.8978182	0	0	0	0	0	0	0
0.58812815	89.54701564	121.3980157	0	0	0	0	0	0	0
0.59388724	88.16824185	120.2680406	0	0	0	0	0	0	0
0.59485223	88.42178506	120.0419751	0	0	0	0	0	0	0
0.5989591	89.17949843	119.0996266	0	0	0	0	0	0	0
0.60243871	87.53112194	118.4976732	0	0	0	0	0	0	0
0.60944701	83.06195758	117.3350191	0	0	0	0	0	0	0
0.61021678	85.90537086	116.8821498	0	0	0	0	0	0	0
0.61155691	85.99497317	116.5620474	0	0	0	0	0	0	0
0.61651371	86.86768345	115.3125845	0	0	0	0	0	0	0
0.61811596	85.5006804	115.0752616	0	0	0	0	0	0	0
0.62259504	83.69491418	114.2152057	0	0	0	0	0	0	0
0.62448079	83.96070109	113.7460974	0	0	0	0	0	0	0
0.62871203	83.08267875	112.8588122	0	0	0	0	0	0	0
0.63344202	84.94042189	111.5458715	0	0	0	0	0	0	0
0.63454982	83.21486104	111.4882811	0	0	0	0	0	0	0
0.63905298	80.1458754	110.8165537	0	0	0	0	0	0	0
0.63974829	81.01002763	110.5535159	0	0	0	0	0	0	0
0.64174056	81.014168	110.0989841	0	0	0	0	0	0	0
0.64683643	79.96008342	109.0833745	0	0	0	0	0	0	0
0.64965386	79.88105483	108.4681291	0	0	0	0	0	0	0
0.65478098	76.50550543	107.8043536	0	0	0	0	0	0	0
0.65548864	78.35748548	107.4064903	0	0	0	0	0	0	0
0.65695716	78.47148863	107.0809917	0	0	0	0	0	0	0
0.66152843	78.53295778	106.1235397	0	0	0	0	0	0	0
0.66437718	77.44753843	105.6977826	0	0	0	0	0	0	0
0.6701808	75.44970962	104.8438648	0	0	0	0	0	0	0
0.67105198	76.26734098	104.5560344	0	0	0	0	0	0	0
0.67313289	76.17722281	104.1715604	0	0	0	0	0	0	0
0.67931048	75.10082893	103.1841181	0	0	0	0	0	0	0
0.68051571	75.15999764	102.9558627	0	0	0	0	0	0	0
0.68631575	79.19759472	101.2770648	0	0	0	0	0	0	0
0.68711611	76.18265613	101.6196793	0	0	0	0	0	0	0
0.68987087	74.39472995	101.4325851	0	0	0	0	0	0	0
0.69422112	73.23139287	100.8931702	0	0	0	0	0	0	0
0.6958799	73.58853901	100.5597311	0	0	0	0	0	0	0
0.69987613	73.18600219	99.98021702	0	0	0	0	0	0	0
0.7050943	74.49781738	98.97147476	0	0	0	0	0	0	0
0.70625494	73.43259752	99.0019172	0	0	0	0	0	0	0
0.71115046	64.14825471	100.0841741	0	0	0	0	0	0	0
0.71173541	71.44756122	98.6855658	0	0	0	0	0	0	0
0.71258789	72.27921266	98.43739742	0	0	0	0	0	0	0
0.71466801	72.37746528	98.19317853	0	0	0	0	0	0	0
0.72079061	71.75951914	97.71054171	0	0	0	0	0	0	0
0.72188766	72.01778496	97.56246066	0	0	0	0	0	0	0
0.72636991	73.71395535	96.85094753	0	0	0	0	0	0	0
0.72760858	72.55038902	96.97951705	0	0	0	0	0	0	0
0.73180623	70.96552437	96.98196279	0	0	0	0	0	0	0
0.73250465	71.55831355	96.81385182	0	0	0	0	0	0	0
0.73488668	71.83953722	96.59485397	0	0	0	0	0	0	0
0.74025028	67.49933095	97.16321168	0	0	0	0	0	0	0
0.74087037	70.93842825	96.409522	0	0	0	0	0	0	0
0.74207077	71.47538022	96.22841728	0	0	0	0	0	0	0
0.74514819	71.55365069	96.0430343	0	0	0	0	0	0	0
0.74988661	70.73933124	95.97974894	0	0	0	0	0	0	0
0.75069006	71.19374785	95.84281845	0	0	0	0	0	0	0
0.7535709	71.58745943	95.62368254	0	0	0	0	0	0	0
0.75772682	70.63461238	95.66284945	0	0	0	0	0	0	0
0.75898123	71.14315935	95.49797094	0	0	0	0	0	0	0
0.76221745	71.23122895	95.3527613	0	0	0	0	0	0	0
0.76683826	70.41538187	95.37642897	0	0	0	0	0	0	0
0.76762298	70.88809501	95.23954785	0	0	0	0	0	0	0
0.77037435	71.24758246	95.0641199	0	0	0	0	0	0	0
0.77467261	70.02860446	95.22296976	0	0	0	0	0	0	0
0.77537794	70.71938344	95.03588165	0	0	0	0	0	0	0
0.77747987	70.95621256	94.9178768	0	0	0	0	0	0	0
0.7828133	69.55688922	95.11975598	0	0	0	0	0	0	0
0.78360869	70.67146455	94.82209066	0	0	0	0	0	0	0
0.78530014	70.79695242	94.74789189	0	0	0	0	0	0	0
0.79155303	72.55691275	94.14457041	0	0	0	0	0	0	0
0.7924551	71.50661349	94.39291339	0	0	0	0	0	0	0
0.7963091	69.84969394	94.73797656	0	0	0	0	0	0	0
0.79695968	70.47696974	94.55988198	0	0	0	0	0	0	0
0.79910341	70.76523543	94.43922062	0	0	0	0	0	0	0
0.80421486	68.37265184	95.00681238	0	0	0	0	0	0	0
0.8049114	70.44494674	94.44131149	0	0	0	0	0	0	0
0.80617585	70.6358023	94.38078358	0	0	0	0	0	0	0
0.81163874	74.36054065	93.34344136	0	0	0	0	0	0	0
0.81234843	72.10323789	93.97095032	0	0	0	0	0	0	0
0.81515578	70.82032455	94.34615691	0	0	0	0	0	0	0
0.8206751	66.5066365	95.64811894	0	0	0	0	0	0	0
0.82129173	70.33833617	94.55971723	0	0	0	0	0	0	0
0.82234334	70.76101931	94.45611628	0	0	0	0	0	0	0
0.82557815	71.20987515	94.38685766	0	0	0	0	0	0	0
0.82903612	70.74663224	94.59835408	0	0	0	0	0	0	0
0.83260572	73.11896728	93.97807295	0	0	0	0	0	0	0
0.83361803	71.71675781	94.42291497	0	0	0	0	0	0	0
0.83735303	69.83569665	95.09624405	0	0	0	0	0	0	0
0.8379621	70.75214291	94.83566754	0	0	0	0	0	0	0
0.83962992	71.03689024	94.79932795	0	0	0	0	0	0	0
0.84428043	70.9722444	94.96883994	0	0	0	0	0	0	0
0.84659461	71.13686346	94.99517821	0	0	0	0	0	0	0
0.8520503	68.05577778	96.17752251	0	0	0	0	0	0	0
0.85266546	70.78155531	95.32705829	0	0	0	0	0	0	0
0.85378138	71.08925759	95.26915084	0	0	0	0	0	0	0
0.85762648	72.08688614	95.0866629	0	0	0	0	0	0	0
0.85928347	71.38386766	95.37795635	0	0	0	0	0	0	0
0.86254153	71.06392563	95.60252475	0	0	0	0	0	0	0
0.86634977	73.95812655	94.78259096	0	0	0	0	0	0	0
0.86710821	72.24259839	95.38780463	0	0	0	0	0	0	0
0.87012536	71.05782368	95.90592995	0	0	0	0	0	0	0
0.87389941	75.17455118	94.63480004	0	0	0	0	0	0	0
0.87456574	72.62692095	95.53877456	0	0	0	0	0	0	0
0.87693642	71.40322046	96.05492436	0	0	0	0	0	0	0
0.88092209	70.29116942	96.60465504	0	0	0	0	0	0	0
0.88158244	71.0895262	96.34875925	0	0	0	0	0	0	0
0.88329292	71.29360525	96.34394325	0	0	0	0	0	0	0
0.88825994	70.97286106	96.65373649	0	0	0	0	0	0	0
0.88919917	71.23134137	96.59669199	0	0	0	0	0	0	0
0.89305001	72.93244916	96.11886546	0	0	0	0	0	0	0
0.894016	71.8947187	96.53648695	0	0	0	0	0	0	0
0.89692141	71.24014751	96.88792841	0	0	0	0	0	0	0
0.90132713	75.96721306	95.29398532	0	0	0	0	0	0	0
0.90193049	72.92774799	96.49442238	0	0	0	0	0	0	0
0.90346064	71.80270999	97.07321197	0	0	0	0	0	0	0
0.90659069	71.45752443	97.62958661	0	0	0	0	0	0	0
0.90860922	71.89074774	97.82640829	0	0	0	0	0	0	0
